<svg xmlns="http://www.w3.org/2000/svg" width="357.4" height="26.6" viewBox="0 0 357.4 26.6">
  <title>legend</title>
  <g id="Layer_2" data-name="Layer 2">
    <g id="Layer_4" data-name="Layer 4">
      <g>
        <g>
          <path d="M55.9,23a4.5,4.5,0,0,1-2.5-.6,4.5,4.5,0,0,1-.5-2.4.3.3,0,0,1,.5-.1c.3,1,1.4,2.4,2.6,2.4a1.5,1.5,0,0,0,1.6-1.5,2.8,2.8,0,0,0-2-2.4c-1.1-.6-2.3-1.5-2.3-2.9s1.3-2.9,3.5-2.9a5.2,5.2,0,0,1,1.7.2H59a5.7,5.7,0,0,1,.3,2.2c-.1.2-.4.2-.6,0a2.4,2.4,0,0,0-2-1.8,1.4,1.4,0,0,0-1.5,1.4,2.1,2.1,0,0,0,1.4,1.7l1,.5a3.5,3.5,0,0,1,2.1,3C59.7,21.8,58.2,23,55.9,23Z"/>
          <path d="M63.2,21c0,1,0,1.2.5,1.2H64a.6.6,0,0,1,0,.6H60.4a.4.4,0,0,1,0-.6h.2c.5,0,.6-.2.6-1.2V18.7c0-.6,0-.8-.3-.9l-.2-.2a.3.3,0,0,1,0-.4,9.1,9.1,0,0,0,2.2-.9h.3V21Zm.1-6.8a1.1,1.1,0,0,1-1.2,1.1,1,1,0,0,1-1-1.1,1.1,1.1,0,0,1,1.1-1.1A1,1,0,0,1,63.3,14.2Z"/>
          <path d="M66.1,22.7H64.7c-.1-.1-.2-.2-.1-.3l1.3-2.1,1.4-2.5a1,1,0,0,0,.1-.4c0-.1,0-.1-.4-.1h-.4c-.6,0-.9,0-1.1.3l-.5.8c-.1.2-.4.1-.5-.1s.3-1.6.4-2h.4c0,.3,0,.3.8.3H70c.1,0,.1.1.1.2a10.9,10.9,0,0,0-1,1.7l-1.6,2.8a1.5,1.5,0,0,0-.3.6c0,.1.2.1.6.1h.3a1.7,1.7,0,0,0,1.5-.5l.4-.9c.1-.1.5,0,.5.1a5.3,5.3,0,0,1-.5,2H66.1Z"/>
          <path d="M73.1,19.2c-.4,0-.4,0-.4.2a2.1,2.1,0,0,0,2.1,2.3,1.5,1.5,0,0,0,1.4-.8c.2,0,.4.1.4.3A2.8,2.8,0,0,1,74,22.9a2.9,2.9,0,0,1-3.2-3,3.3,3.3,0,0,1,3.3-3.4,2.2,2.2,0,0,1,2.4,2.2c0,.3-.1.5-.6.5Zm1-.7h.6c0-.1.1-.2.1-.4a.7.7,0,0,0-.8-.8,1.3,1.3,0,0,0-1.2,1.1c0,.2.2.2.7.2Z"/>
          <path d="M77.4,18.1a1.2,1.2,0,1,1,2.4,0,1.2,1.2,0,0,1-1.2,1.2A1.2,1.2,0,0,1,77.4,18.1Zm0,3.6a1.2,1.2,0,0,1,1.2-1.2,1.2,1.2,0,0,1,1.2,1.2,1.2,1.2,0,1,1-2.4,0Z"/>
          <path d="M94.3,20.2a22.6,22.6,0,0,0,.1,2.6l-.3.2a21.7,21.7,0,0,0-2-2.3l-3.4-4-1.8-2h0a2.5,2.5,0,0,0-.1,1V19a10.2,10.2,0,0,0,.3,3.1l.8.3h.4a.3.3,0,0,1,0,.4H85a.6.6,0,0,1-.1-.4h.5l.6-.3a15.6,15.6,0,0,0,.2-3.1V14.6a1.5,1.5,0,0,0-.3-1.1,1.5,1.5,0,0,0-1-.3h-.2c-.1-.1-.1-.4,0-.4h2.4a26.9,26.9,0,0,0,2.6,3.3l1.4,1.6,2.5,2.7h0c.1,0,.1-.3.1-.6V16.6a9.9,9.9,0,0,0-.3-3.1l-.9-.3h-.3c-.1-.1-.1-.4,0-.4h3.4a.3.3,0,0,1,0,.4h-.2l-.9.3a15.1,15.1,0,0,0-.2,3.1Z"/>
          <path d="M98,20.5c0,1.1.3,1.7,1.4,1.7a1.7,1.7,0,0,0,1.2-.4,1.1,1.1,0,0,0,.3-.9V18.5c0-1-.1-1-.5-1.2h-.2c-.1-.1-.1-.3,0-.3a4,4,0,0,0,1.7-.3h.2A4.9,4.9,0,0,0,102,18v2.5c0,1.2.1,1.7.5,1.7h.6c.1.1.1.4,0,.4a11.7,11.7,0,0,0-2,.6h-.2v-.6c0-.2,0-.2-.1-.2a5.2,5.2,0,0,1-2.1.7c-1.3,0-1.8-.6-1.8-1.8V18.6c0-1,0-1.1-.5-1.3h-.1c-.1-.1-.1-.3,0-.3a5,5,0,0,0,1.6-.3H98v3.8Z"/>
          <path d="M112.7,18.9c0-1-.4-1.6-1.4-1.6a1.4,1.4,0,0,0-1.2.6c-.2.2-.3.3-.3.9V21c0,1.1.1,1.3.6,1.4h.3a.3.3,0,0,1,0,.4h-2.8a.3.3,0,0,1,0-.4h.3c.5-.1.5-.3.5-1.4V18.9c0-1-.4-1.6-1.3-1.6a1.5,1.5,0,0,0-1.3.6c-.2.1-.2.3-.2.8V21c0,1.1,0,1.3.5,1.4h.3a.3.3,0,0,1,0,.4h-2.8c-.1-.1-.2-.3-.1-.4h.4c.5-.1.6-.3.6-1.4V18.4c0-.6,0-.6-.4-.9h-.2v-.3l1.5-.7c.1,0,.2,0,.2.1v.7c0,.1,0,.2.1.2a3.9,3.9,0,0,1,2-.8,1.7,1.7,0,0,1,1.6.9h.4a3.9,3.9,0,0,1,2-.8,1.7,1.7,0,0,1,1.8,1.9V21c0,1.1.1,1.3.6,1.4h.4c.1.1,0,.3-.1.4h-2.8a.3.3,0,0,1,0-.4h.2c.6-.1.6-.3.6-1.4Z"/>
          <path d="M116.2,14.3c0-.9,0-1-.4-1.3h-.2c-.1,0-.1-.2,0-.3a6.4,6.4,0,0,0,1.6-.6h.2c0,.5-.1,1.2-.1,1.9v2.8c0,.2.1.3.2.3a3.8,3.8,0,0,1,1.7-.5,2.8,2.8,0,0,1,2.9,2.9,3.3,3.3,0,0,1-3.5,3.4l-1.3-.2-.6-.2c-.1,0-.2.2-.3.3h-.1a.1.1,0,0,1-.1-.1V14.3Zm1.1,6.4a2.5,2.5,0,0,0,.4,1.3,1.6,1.6,0,0,0,1.1.5c1.5,0,2-1.2,2-2.5s-.8-2.7-2.3-2.7l-1,.2c-.1.1-.2.3-.2.8Z"/>
          <path d="M124.5,18.9c-.3,0-.4,0-.4.4a2.6,2.6,0,0,0,2.5,2.8,1.9,1.9,0,0,0,1.4-.7c.2-.1.3,0,.3.1a2.7,2.7,0,0,1-4.5.4,2.6,2.6,0,0,1-.7-1.9,3.2,3.2,0,0,1,3-3.4,2,2,0,0,1,2.2,1.8c0,.2-.1.3-.1.4h-3.7Zm1-.5H127c.1,0,.1-.1.1-.3s-.3-.9-1.1-.9a1.8,1.8,0,0,0-1.7,1.3h1.2Z"/>
          <path d="M130,18.4c0-.6,0-.6-.4-.9h-.1a.2.2,0,0,1,0-.3l1.5-.7c.1,0,.1,0,.1.1v.9a.1.1,0,0,0,.1.1,3.3,3.3,0,0,1,1.6-.9c.4,0,.7.2.7.6a.7.7,0,0,1-.7.7h-.3a.7.7,0,0,0-.6-.2.6.6,0,0,0-.6.3,2.7,2.7,0,0,0-.2,1.1v2c0,1.1,0,1.3.6,1.4h.6c.1.1,0,.3-.1.4h-3c-.1-.1-.2-.3,0-.4h.2c.6-.1.6-.3.6-1.4Z"/>
          <path d="M144,19.7a3,3,0,0,1-3.1,3.2,2.9,2.9,0,0,1-3.1-3.1,3.2,3.2,0,0,1,3.2-3.2A3,3,0,0,1,144,19.7Zm-3.2-2.6c-1,0-1.7.9-1.7,2.6s.6,2.8,1.9,2.8,1.7-1.4,1.7-2.5S142.2,17.1,140.8,17.1Z"/>
          <path d="M147.3,17.4c-.2,0-.2.1-.2.5V21c0,1.1,0,1.3.6,1.4h.5a.3.3,0,0,1,0,.4h-3.1a.3.3,0,0,1,0-.4h.3c.6-.1.6-.3.6-1.4V17.9c0-.4,0-.5-.3-.5h-.5c-.1,0-.1-.1-.1-.2l.7-.4c.1,0,.2-.1.2-.3a7.8,7.8,0,0,1,.4-2.6,3.2,3.2,0,0,1,2.7-1.9c.8,0,1.5.4,1.5.9a.6.6,0,0,1-.6.5h-.3a1.5,1.5,0,0,0-1.2-.7,1.2,1.2,0,0,0-1.1.8,10.9,10.9,0,0,0-.3,2.6v.4c0,.4,0,.4.2.4h1.8c.1.2,0,.6-.1.6Z"/>
          <path d="M156.2,19.6c.2-.1.3-.2.3-.4v-.7c0-.6-.2-1.3-1.1-1.3a1,1,0,0,0-1,.7.7.7,0,0,1-.1.5,1.6,1.6,0,0,1-.9.3.2.2,0,0,1-.2-.2c0-.8,1.7-1.9,2.8-1.9s1.6.6,1.6,1.8V21c-.1.7.1,1.3.7,1.3h.5c.1,0,.1.1.1.2a1.4,1.4,0,0,1-1.2.6,1.3,1.3,0,0,1-1-.4l-.2-.2-.6.3a4.5,4.5,0,0,1-1.1.3,2,2,0,0,1-1.1-.3,1.8,1.8,0,0,1-.4-1.1c0-.5.3-.9,1.2-1.2Zm-.9,2.7a2.5,2.5,0,0,0,.9-.4.8.8,0,0,0,.2-.7v-.9c0-.2,0-.2-.1-.2l-.6.2c-.9.3-1.4.5-1.4,1.1A1,1,0,0,0,155.3,22.3Z"/>
          <path d="M164.2,16.9a.8.8,0,0,1,.2.6c0,.2-.1.5-.3.5h-.2a2,2,0,0,0-1.5-.8,2.2,2.2,0,0,0-2.1,2.4,2.5,2.5,0,0,0,2.5,2.6,1.8,1.8,0,0,0,1.6-.9l.3.2a2.7,2.7,0,0,1-2.5,1.5,3.1,3.1,0,0,1-2.1-.7,3.1,3.1,0,0,1-.8-2.2,3.3,3.3,0,0,1,3.6-3.4A3.5,3.5,0,0,1,164.2,16.9Z"/>
          <path d="M167.4,17.4c-.2,0-.3.1-.3.4v2.8c0,.9.2,1.7,1.1,1.7h.4a.7.7,0,0,0,.4-.2c.1,0,.2.2.2.2a1.9,1.9,0,0,1-1.6.7c-1.3,0-1.6-.7-1.6-1.6V17.9c0-.4,0-.5-.3-.5h-.4c-.1,0-.1-.2,0-.3l.9-.4a2.8,2.8,0,0,0,.6-.9h.4v.6c0,.3,0,.3.2.3h1.7c.2.2.1.6,0,.6Z"/>
          <path d="M171.7,20.5c0,1.1.3,1.7,1.4,1.7a1.7,1.7,0,0,0,1.2-.4,1.1,1.1,0,0,0,.3-.9V18.5c0-1-.1-1-.5-1.2h-.2c-.1-.1-.1-.3,0-.3a4,4,0,0,0,1.7-.3h.2a4.9,4.9,0,0,0-.1,1.3v2.5c0,1.2.1,1.7.5,1.7h.6c.1.1.1.4,0,.4a11.7,11.7,0,0,0-2,.6h-.2v-.6c0-.2,0-.2-.1-.2a5.2,5.2,0,0,1-2.1.7c-1.3,0-1.8-.6-1.8-1.8V18.6c0-1,0-1.1-.5-1.3H170c-.1-.1-.1-.3,0-.3a5,5,0,0,0,1.6-.3h.2a4.2,4.2,0,0,0-.1,1.3Z"/>
          <path d="M180.6,19.6c.2-.1.2-.2.2-.4v-.7c0-.6-.1-1.3-1.1-1.3s-.9.2-.9.7a.8.8,0,0,1-.2.5,1.3,1.3,0,0,1-.8.3c-.2,0-.2-.1-.2-.2s1.7-1.9,2.7-1.9a1.5,1.5,0,0,1,1.6,1.8V21c0,.7.1,1.3.7,1.3h.6a.3.3,0,0,1,.1.2,1.5,1.5,0,0,1-1.3.6,1.4,1.4,0,0,1-1-.4.2.2,0,0,0-.2-.2l-.6.3a2.9,2.9,0,0,1-1.1.3,1.5,1.5,0,0,1-1-.3,1.4,1.4,0,0,1-.5-1.1c0-.5.3-.9,1.3-1.2Zm-1,2.7a1.9,1.9,0,0,0,.9-.4.8.8,0,0,0,.2-.7v-.9c0-.2-.1-.2-.2-.2l-.6.2c-.9.3-1.3.5-1.3,1.1A.9.9,0,0,0,179.6,22.3Z"/>
          <path d="M185.5,21c0,1.1,0,1.3.6,1.4h.3a.3.3,0,0,1,0,.4h-2.9a.3.3,0,0,1,0-.4h.3c.6-.1.6-.3.6-1.4V14.3c0-.9,0-1-.5-1.3h-.1c-.1,0-.1-.2,0-.3l1.6-.6h.1V21Z"/>
          <path d="M191.6,18.3c-.3-.9-.5-1-.9-1.1h-.2c-.1,0-.1-.3,0-.3h2.7c.1,0,.1.3,0,.3h-.3c-.2,0-.4.1-.4.2a2.7,2.7,0,0,0,.3.8l.9,2.3.3.6.3-.7.8-1.8c.2-.5.2-.7.1-.9s-.4-.4-.7-.5h-.2c-.1-.1-.1-.3,0-.3H197c.1,0,.1.3,0,.3h-.3c-.6.1-.6.2-.4.7l1.2,2.8c.1.2.1.4.2.4l.2-.4a26.4,26.4,0,0,0,1-2.7,1.8,1.8,0,0,0,.1-.6l-.2-.2h-.4c-.1,0-.1-.3,0-.3h2.2c.1,0,.1.3,0,.3h-.3c-.3.1-.5.3-.8.9l-1.4,3.4c-.2.6-.4,1-.5,1.4h-.4a11.6,11.6,0,0,0-.6-1.6l-.7-1.8c-.1-.2-.3-.7-.4-.7l-.3.7-.8,1.9a7.7,7.7,0,0,1-.6,1.5.1.1,0,0,1-.1.1c-.1,0-.2,0-.2-.1l-.5-1.2Z"/>
          <path d="M207.2,19.7a3,3,0,0,1-3.2,3.2,3,3,0,0,1-3.1-3.1,3.2,3.2,0,0,1,3.2-3.2A3.1,3.1,0,0,1,207.2,19.7ZM204,17.1c-1,0-1.8.9-1.8,2.6s.6,2.8,2,2.8,1.7-1.4,1.7-2.5S205.4,17.1,204,17.1Z"/>
          <path d="M217.1,18.9c0-1-.4-1.6-1.4-1.6a1.6,1.6,0,0,0-1.2.6c-.2.2-.2.3-.2.9V21c0,1.1,0,1.3.5,1.4h.3c.2.1.1.3,0,.4h-2.8a.3.3,0,0,1,0-.4h.3c.5-.1.5-.3.5-1.4V18.9c0-1-.4-1.6-1.3-1.6a1.6,1.6,0,0,0-1.3.6c-.1.1-.2.3-.2.8V21c0,1.1,0,1.3.6,1.4h.2a.3.3,0,0,1,0,.4h-2.8c-.1-.1-.2-.3-.1-.4h.4c.6-.1.6-.3.6-1.4V18.4c0-.6,0-.6-.4-.9h-.2a.4.4,0,0,1,.1-.3l1.5-.7a.1.1,0,0,1,.1.1v.7c0,.1,0,.2.2.2a3.3,3.3,0,0,1,1.9-.8,1.7,1.7,0,0,1,1.6.9h.4a3.9,3.9,0,0,1,2.1-.8,1.7,1.7,0,0,1,1.7,1.9V21c0,1.1.1,1.3.6,1.4h.4c.1.1,0,.3-.1.4h-2.8a.3.3,0,0,1,0-.4h.3c.5-.1.5-.3.5-1.4Z"/>
          <path d="M221.5,18.9c-.4,0-.4,0-.4.4s.8,2.8,2.4,2.8a1.7,1.7,0,0,0,1.4-.7c.2-.1.3,0,.3.1a2.7,2.7,0,0,1-4.5.4A2.6,2.6,0,0,1,220,20a3.3,3.3,0,0,1,3.1-3.4,2,2,0,0,1,2.1,1.8c0,.2-.1.3-.1.4h-3.6Zm.9-.5h1.5c.1,0,.1-.1.1-.3s-.2-.9-1.1-.9a1.8,1.8,0,0,0-1.7,1.3h1.2Z"/>
          <path d="M226.9,18.4c0-.6,0-.6-.4-.9h-.1a.2.2,0,0,1,0-.3l1.5-.7h.2a2.3,2.3,0,0,0-.1.7.2.2,0,0,0,.2.2,3.9,3.9,0,0,1,2.1-.8,1.8,1.8,0,0,1,1.8,1.9V21c0,1.1,0,1.3.5,1.4h.4c.1.1,0,.3-.1.4h-2.8a.3.3,0,0,1,0-.4h.3c.5-.1.5-.3.5-1.4V18.8c0-.8-.3-1.5-1.4-1.5a1.6,1.6,0,0,0-1.2.6,1.1,1.1,0,0,0-.3.9V21c0,1.1.1,1.3.6,1.4h.3c.1.1,0,.3-.1.4h-2.7c-.1-.1-.2-.3-.1-.4h.4c.5-.1.5-.3.5-1.4Z"/>
          <path d="M239.8,17.4c-.3,0-.3.1-.3.4v2.8c0,.9.1,1.7,1.1,1.7h.4l.4-.2c.1,0,.2.2.1.2a1.7,1.7,0,0,1-1.5.7c-1.3,0-1.6-.7-1.6-1.6V17.9c0-.4,0-.5-.3-.5h-.4c-.1,0-.1-.2-.1-.3a3.4,3.4,0,0,0,1-.4,2.8,2.8,0,0,0,.6-.9h.3v.6c0,.3,0,.3.3.3h1.7c.1.2.1.6,0,.6Z"/>
          <path d="M243,14.3c0-.9,0-1-.5-1.3h-.1c-.1,0-.1-.2,0-.3A6.4,6.4,0,0,0,244,12h.2a10.3,10.3,0,0,0-.1,1.9v3.1c0,.1,0,.3.1.3a3.3,3.3,0,0,1,2-.8,1.7,1.7,0,0,1,1.9,1.9V21c0,1.1.1,1.3.6,1.4h.4a.3.3,0,0,1,0,.4h-2.9c-.1-.1-.2-.3-.1-.4h.3c.6-.1.6-.3.6-1.4V18.9c0-1-.4-1.6-1.4-1.6a2.1,2.1,0,0,0-1.2.4.9.9,0,0,0-.3.8V21c0,1.1,0,1.3.6,1.4h.3a.3.3,0,0,1,0,.4h-2.9c-.1-.1-.2-.3,0-.4h.3c.6-.1.6-.3.6-1.4Z"/>
          <path d="M251.4,18.9c-.4,0-.5,0-.5.4a2.6,2.6,0,0,0,2.5,2.8,1.7,1.7,0,0,0,1.4-.7c.2-.1.3,0,.3.1a2.7,2.7,0,0,1-4.5.4,2.6,2.6,0,0,1-.7-1.9,3.2,3.2,0,0,1,3-3.4,2,2,0,0,1,2.2,1.8c0,.2-.1.3-.1.4h-3.6Zm.9-.5h1.5c.1,0,.1-.1.1-.3s-.3-.9-1.1-.9a1.8,1.8,0,0,0-1.7,1.3h1.2Z"/>
          <path d="M264.6,16.9a.8.8,0,0,1,.2.6c0,.2-.1.5-.3.5s-.2,0-.2-.1a2,2,0,0,0-1.5-.8,2.1,2.1,0,0,0-2.1,2.4,2.5,2.5,0,0,0,2.4,2.6,1.9,1.9,0,0,0,1.7-.9l.3.2a2.8,2.8,0,0,1-2.5,1.5,3,3,0,0,1-2.1-.7,3.2,3.2,0,0,1-.9-2.2,3.4,3.4,0,0,1,3.7-3.4A3.5,3.5,0,0,1,264.6,16.9Z"/>
          <path d="M267.5,21c0,1.1.1,1.3.6,1.4h.4c.1.1,0,.3-.1.4h-2.9a.3.3,0,0,1,0-.4h.3c.6-.1.6-.3.6-1.4V14.3c0-.9,0-1-.5-1.3h-.1c-.1,0-.1-.2,0-.3a6.4,6.4,0,0,0,1.6-.6h.2c0,.4-.1,1.2-.1,1.9Z"/>
          <path d="M271.2,20.5c0,1.1.2,1.7,1.4,1.7a1.7,1.7,0,0,0,1.2-.4,1.1,1.1,0,0,0,.3-.9V18.5c0-1-.1-1-.6-1.2h-.2c-.1-.1-.1-.3.1-.3a4,4,0,0,0,1.7-.3h.2a4.9,4.9,0,0,0-.1,1.3v2.5c0,1.2.1,1.7.5,1.7h.6c0,.1.1.4-.1.4a13.9,13.9,0,0,0-1.9.6h-.2v-.6c0-.2,0-.2-.1-.2a5.2,5.2,0,0,1-2.1.7c-1.3,0-1.8-.6-1.8-1.8V18.6c0-1,0-1.1-.5-1.3h-.2c0-.1,0-.3.1-.3a5,5,0,0,0,1.6-.3h.1v3.8Z"/>
          <path d="M280.6,16.9a4.3,4.3,0,0,1,.2,1.2h-.3c-.3-.6-.7-1.1-1.4-1.1a.9.9,0,0,0-.9,1c0,.6.6.9,1.1,1.2s1.6,1,1.6,2-1.1,1.7-2.2,1.7a2.5,2.5,0,0,1-1.6-.4,6.1,6.1,0,0,1-.2-1.5.3.3,0,0,1,.4,0,1.7,1.7,0,0,0,1.6,1.5.9.9,0,0,0,1-1c0-.6-.6-1-1.2-1.3s-1.5-1.1-1.5-1.9.9-1.7,2.1-1.7A2.7,2.7,0,0,1,280.6,16.9Z"/>
          <path d="M284,17.4c-.2,0-.2.1-.2.4v2.8c0,.9.1,1.7,1,1.7h.5l.3-.2.2.2a1.9,1.9,0,0,1-1.6.7c-1.3,0-1.6-.7-1.6-1.6V17.9c0-.4,0-.5-.3-.5h-.4c-.1,0-.1-.2,0-.3l.9-.4.7-.9h.3v.6c0,.3,0,.3.2.3h1.7c.2.2.2.6,0,.6Z"/>
          <path d="M287.9,18.9c-.4,0-.4,0-.4.4a2.6,2.6,0,0,0,2.5,2.8,1.6,1.6,0,0,0,1.3-.7c.2-.1.3,0,.3.1a2.5,2.5,0,0,1-2.3,1.4,2.7,2.7,0,0,1-2.8-2.9,3.2,3.2,0,0,1,3-3.4,1.9,1.9,0,0,1,2.1,1.8c0,.2,0,.3-.1.4h-3.6Zm.9-.5h1.6a.4.4,0,0,0,.1-.3c0-.4-.3-.9-1.2-.9a1.9,1.9,0,0,0-1.7,1.3h1.2Z"/>
          <path d="M293.3,18.4c0-.6,0-.6-.4-.9h-.1a.2.2,0,0,1,0-.3l1.5-.7c.1,0,.1,0,.1.1v.9h.1a3.3,3.3,0,0,1,1.6-.9c.4,0,.7.2.7.6a.7.7,0,0,1-.6.7h-.4a.7.7,0,0,0-.6-.2.7.7,0,0,0-.6.3,2.7,2.7,0,0,0-.2,1.1v2c0,1.1.1,1.3.6,1.4h.6a.3.3,0,0,1,0,.4h-3.1a.3.3,0,0,1,0-.4h.3c.5-.1.5-.3.5-1.4Z"/>
          <path d="M302.1,18.4c0-.6,0-.6-.4-.9h-.2v-.3l1.6-.7a.1.1,0,0,1,.1.1v.9h0a3.2,3.2,0,0,1,1.7-.9.6.6,0,0,1,.6.6.7.7,0,0,1-.6.7h-.3a1.1,1.1,0,0,0-.7-.2.5.5,0,0,0-.5.3c-.2.2-.2.6-.2,1.1v2c0,1.1,0,1.3.6,1.4h.5a.3.3,0,0,1,0,.4h-3.1a.3.3,0,0,1,0-.4h.3c.6-.1.6-.3.6-1.4Z"/>
          <path d="M307.4,18.9c-.4,0-.4,0-.4.4a2.6,2.6,0,0,0,2.5,2.8,1.6,1.6,0,0,0,1.3-.7c.2-.1.3,0,.3.1a2.5,2.5,0,0,1-2.3,1.4A2.7,2.7,0,0,1,306,20a3.2,3.2,0,0,1,3-3.4,1.9,1.9,0,0,1,2.1,1.8c0,.2,0,.3-.1.4h-3.6Zm.9-.5h1.6a.4.4,0,0,0,.1-.3c0-.4-.3-.9-1.2-.9a1.9,1.9,0,0,0-1.7,1.3h1.2Z"/>
          <path d="M312.6,18.4c0-.6,0-.6-.4-.9h-.1a.2.2,0,0,1,0-.3,5.5,5.5,0,0,0,1.5-.8h.2c0,.3-.1.5-.1.7l.2.2a4.5,4.5,0,0,1,2.1-.7c1.5,0,2.4,1.2,2.4,2.8a3.4,3.4,0,0,1-3.6,3.5H314c-.2,0-.2.1-.2.4v1.6c0,1,0,1.2.5,1.2h.6c.1.1.1.4,0,.4h-3.1c-.1,0-.1-.3,0-.4h.3c.5-.1.5-.2.5-1.3Zm1.2,2.8c0,.5.1.7.4.9a2.3,2.3,0,0,0,1.1.3c1.2,0,1.9-1.1,1.9-2.7s-.6-2.4-2-2.4a2.8,2.8,0,0,0-1.3.4,2,2,0,0,0-.1.9Z"/>
          <path d="M320.4,18.4c0-.6,0-.6-.4-.9h-.1a.2.2,0,0,1,0-.3l1.5-.7c.1,0,.2,0,.2.1v.9h0a3.3,3.3,0,0,1,1.6-.9c.4,0,.7.2.7.6a.7.7,0,0,1-.6.7h-.4a.7.7,0,0,0-.6-.2.7.7,0,0,0-.6.3,3.1,3.1,0,0,0-.1,1.1v2c0,1.1,0,1.3.6,1.4h.5a.3.3,0,0,1,0,.4h-3.1a.3.3,0,0,1,0-.4h.3c.5-.1.5-.3.5-1.4Z"/>
          <path d="M325.8,18.9c-.4,0-.5,0-.5.4a2.6,2.6,0,0,0,2.5,2.8,1.7,1.7,0,0,0,1.4-.7c.2-.1.3,0,.3.1a2.7,2.7,0,0,1-4.5.4,2.6,2.6,0,0,1-.7-1.9,3.2,3.2,0,0,1,3-3.4,2,2,0,0,1,2.2,1.8c0,.2-.1.3-.1.4h-3.6Zm.9-.5h1.5c.1,0,.1-.1.1-.3s-.3-.9-1.1-.9a1.8,1.8,0,0,0-1.7,1.3h1.2Z"/>
          <path d="M333.8,16.9a2.4,2.4,0,0,1,.3,1.2h-.4a1.5,1.5,0,0,0-1.3-1.1c-.6,0-.9.4-.9,1s.6.9,1.1,1.2,1.5,1,1.5,2-1,1.7-2.1,1.7a2.4,2.4,0,0,1-1.6-.4,6.1,6.1,0,0,1-.2-1.5c.1-.1.3-.1.3,0s.8,1.5,1.6,1.5a.9.9,0,0,0,1-1c0-.6-.6-1-1.1-1.3s-1.5-1.1-1.5-1.9a1.8,1.8,0,0,1,2-1.7A2.4,2.4,0,0,1,333.8,16.9Z"/>
          <path d="M336.5,18.9c-.4,0-.4,0-.4.4a2.6,2.6,0,0,0,2.5,2.8,1.9,1.9,0,0,0,1.4-.7.2.2,0,0,1,.3.1,2.5,2.5,0,0,1-2.4,1.4,2.7,2.7,0,0,1-2.2-1,3.1,3.1,0,0,1-.6-1.9,3.2,3.2,0,0,1,3-3.4,2,2,0,0,1,2.2,1.8c0,.2-.1.3-.1.4h-3.7Zm1-.5H339c.1,0,.1-.1.1-.3s-.3-.9-1.1-.9a1.8,1.8,0,0,0-1.7,1.3h1.2Z"/>
          <path d="M342,18.4c0-.6,0-.6-.4-.9h-.1a.2.2,0,0,1,0-.3l1.5-.7a.1.1,0,0,1,.1.1v.7a.2.2,0,0,0,.2.2,3.9,3.9,0,0,1,2.1-.8,1.7,1.7,0,0,1,1.7,1.9V21c0,1.1.1,1.3.6,1.4h.3a.3.3,0,0,1,0,.4h-2.8a.3.3,0,0,1,0-.4h.2c.6-.1.6-.3.6-1.4V18.8a1.3,1.3,0,0,0-1.4-1.5,1.6,1.6,0,0,0-1.3.6c-.2.2-.2.4-.2.9V21c0,1.1,0,1.3.6,1.4h.2c.2.1.1.3,0,.4h-2.8a.3.3,0,0,1,0-.4h.3c.6-.1.6-.3.6-1.4Z"/>
          <path d="M351.1,17.4c-.3,0-.3.1-.3.4v2.8c0,.9.1,1.7,1.1,1.7h.4l.4-.2c.1,0,.2.2.2.2a2,2,0,0,1-1.6.7c-1.3,0-1.6-.7-1.6-1.6V17.9c0-.4,0-.5-.3-.5H349c-.1,0-.1-.2-.1-.3a2.5,2.5,0,0,0,1-.4,2.8,2.8,0,0,0,.6-.9h.3v.6c0,.3.1.3.3.3h1.7c.2.2.1.6,0,.6Z"/>
          <path d="M357.1,16.9a2.4,2.4,0,0,1,.3,1.2H357c-.3-.6-.7-1.1-1.3-1.1a.9.9,0,0,0-1,1c0,.6.6.9,1.2,1.2s1.5,1,1.5,2-1.1,1.7-2.2,1.7a2.5,2.5,0,0,1-1.6-.4,3.5,3.5,0,0,1-.1-1.5c0-.1.2-.1.3,0s.7,1.5,1.6,1.5a.9.9,0,0,0,1-1c0-.6-.6-1-1.2-1.3a2.4,2.4,0,0,1-1.4-1.9,1.8,1.8,0,0,1,2-1.7A2.7,2.7,0,0,1,357.1,16.9Z"/>
        </g>
        <circle cx="27.7" cy="12" r="12"/>
        <circle cx="4.3" cy="18.7" r="4.3"/>
      </g>
    </g>
  </g>
</svg>
